<?xml version="1.0" encoding="UTF-8"?>
<svg id="EN" xmlns="http://www.w3.org/2000/svg" version="1.1" viewBox="0 0 499.5 131.1">
  <defs>
    <style>
      .cls-1 {
        fill: #fff200;
      }

      .cls-1, .cls-2, .cls-3, .cls-4 {
        stroke-width: 0px;
      }

      .cls-2 {
        fill: #404040;
      }

      .cls-3 {
        fill: #034ea2;
      }

      .cls-4 {
        fill: #b3b3b3;
      }
    </style>
  </defs>
  <g>
    <path class="cls-2" d="M282.4,66.3c0-.5.2-.8.8-.8h14c.5,0,.7.3.7.7v2.4c0,.5-.2.7-.8.7h-10.4v6.5h9.2c.5,0,.8.2.8.7v2.4c0,.5-.2.7-.8.7h-9.2v7.5h10.6c.5,0,.7.2.7.7v2.3c0,.5-.2.7-.7.7h-14.2c-.5,0-.8-.2-.8-.7v-23.8Z"/>
    <path class="cls-2" d="M317.2,90.8h-2.7c-.6,0-.7-.3-.7-.7v-1.2h0c-1.5,1-4.1,2.2-6.4,2.2-5.1,0-5.6-3-5.6-7v-11.2c0-.5.2-.8.7-.8h2.8c.5,0,.7.3.7.8v10.7c0,2.3.5,3.7,2.8,3.7s4.1-1.2,5.1-1.7v-12.7c0-.5.2-.8.7-.8h2.7c.5,0,.7.3.7.8v17.1c0,.5-.2.7-.7.7Z"/>
    <path class="cls-2" d="M326.9,90c0,.5-.2.7-.7.7h-2.7c-.5,0-.7-.2-.7-.7v-17.1c0-.5.2-.8.7-.8h2.7c.6,0,.8.3.8.8v1.7h0c1.1-1,3.8-2.3,5.6-2.6.5-.1.8,0,.9.6l.3,2.5c0,.5,0,.8-.7.9-2.1.4-4.8,1.2-6.2,1.7v12.2Z"/>
    <path class="cls-2" d="M343.6,91.1c-7.6,0-8.1-5.6-8.1-9.9s.8-9.4,8.1-9.4,8.4,4.9,8.4,9.4-.5,9.9-8.4,9.9ZM343.7,75.4c-3.2,0-4,2.1-4,6s.7,6,3.9,6,4.1-1.9,4.1-6-.6-6-4.1-6Z"/>
    <path class="cls-2" d="M364.6,91.1c-1.3,0-3-.2-4.7-.8h0v6.7c0,.4-.1.8-.7.8h-2.7c-.6,0-.7-.3-.7-.8v-24.1c0-.5.2-.8.7-.8h2.7c.5,0,.7.3.7.8v1.1h.1c1.4-.9,3.8-2.2,6-2.2,5,0,6.3,3.8,6.3,9.5s-1.6,9.8-7.6,9.8ZM364.9,75.6c-1.6,0-4,1.1-5.1,1.7v9.5c1.7.5,3.1.6,4.4.6,2.7,0,3.7-1.4,3.7-6.2s-1-5.7-3-5.7Z"/>
    <path class="cls-2" d="M379.5,82.6c.1,3.8,1.5,4.9,4.6,4.9s3.5-.3,4.9-.4c.7,0,.9,0,1,.6l.2,1.3c.1.6,0,.9-.6,1.2-1.5.6-4.3.9-6.1.9-7.3,0-8.3-4.6-8.3-9.6s.7-9.8,8.1-9.8,8,4.4,8.1,8.5c0,1.4-.3,2.3-1.9,2.3h-10.1ZM379.5,79.7h7.5c0-2.3-.6-4.6-3.8-4.6s-3.6,1.7-3.8,4.6Z"/>
    <path class="cls-2" d="M406.6,88.6c-1.9,1.4-4.4,2.5-7,2.5-4,0-5.2-2.2-5.2-5.4,0-4.4,2.4-6.3,7.1-6.3h4.9v-1c0-2.3-.8-3.1-4-3.1s-3.6.2-5.2.3c-.8.1-1,0-1.1-.5l-.3-1.4c0-.5,0-.8.9-1.1,1.6-.6,4.6-.8,6.4-.8,6.6,0,7.4,2.7,7.4,7v7.3c0,1.6.2,1.6,1.4,1.7.6,0,.7.2.7.6v1.6c0,.4-.3.7-.9.8-.6.1-1.2.2-1.8.2-1.8,0-2.9-.5-3.3-2.3h0ZM406.4,82.3h-4.6c-1.9,0-3.1.7-3.1,3.2s.6,2.2,2.4,2.2,4-1,5.4-1.8v-3.6Z"/>
    <path class="cls-2" d="M430.7,90.8h-2.7c-.5,0-.7-.2-.7-.7v-10.7c0-2.2-.5-3.7-2.7-3.7s-4.2,1.2-5.2,1.7v12.7c0,.5-.2.7-.7.7h-2.7c-.5,0-.7-.2-.7-.7v-17.1c0-.5.2-.8.7-.8h2.7c.5,0,.7.3.7.8v1.1s0,0,.1,0c1.4-1,4.1-2.3,6.4-2.3,5.1,0,5.6,3.4,5.6,7.2v11c0,.5-.2.7-.7.7Z"/>
    <path class="cls-2" d="M292.6,105.3c1.9,0,4.9.3,7,1.1.6.3.8.6.7,1.2l-.3,1.6c-.1.5-.3.6-1,.6-1.9-.2-4.1-.5-6.1-.5-5.2,0-5.9,4.2-5.9,9.1s1,8.9,5.9,8.9,4.1-.2,6.1-.5c.7,0,.9.1,1,.6l.3,1.4c.2.6,0,1-.6,1.2-1.9.8-5.2,1.1-7,1.1-8.5,0-10.3-6.3-10.3-12.7s1.6-13.1,10.3-13.1Z"/>
    <path class="cls-2" d="M311.2,131.1c-7.6,0-8.1-5.6-8.1-9.9s.8-9.4,8.1-9.4,8.4,4.9,8.4,9.4-.5,9.9-8.4,9.9ZM311.2,115.4c-3.2,0-4,2.1-4,6s.7,6,3.9,6,4.1-1.9,4.1-6-.6-6-4.1-6Z"/>
    <path class="cls-2" d="M349.8,130.8h-2.7c-.5,0-.7-.2-.7-.7v-10.8c0-2.8-.7-3.6-2.6-3.6s-3.7,1.1-4.9,1.7c0,.4,0,1.1,0,1.9v10.8c0,.5-.2.7-.7.7h-2.8c-.5,0-.6-.2-.6-.7v-11c0-2.3-.6-3.4-2.5-3.4s-3.5,1-4.9,1.7v12.7c0,.5-.2.7-.7.7h-2.7c-.5,0-.7-.2-.7-.7v-17.1c0-.5.2-.8.7-.8h2.7c.6,0,.8.3.8.8v1.1h0c1.5-1,3.6-2.1,5.7-2.2,2.2,0,4,.5,5.2,2.7,1.9-1.4,4.3-2.7,6.7-2.7,5,0,5.5,3.3,5.5,7.1v11.2c0,.5-.2.7-.7.7Z"/>
    <path class="cls-2" d="M381.1,130.8h-2.7c-.5,0-.7-.2-.7-.7v-10.8c0-2.8-.7-3.6-2.6-3.6s-3.7,1.1-4.9,1.7c0,.4,0,1.1,0,1.9v10.8c0,.5-.2.7-.7.7h-2.8c-.5,0-.6-.2-.6-.7v-11c0-2.3-.6-3.4-2.5-3.4s-3.5,1-4.9,1.7v12.7c0,.5-.2.7-.7.7h-2.7c-.5,0-.7-.2-.7-.7v-17.1c0-.5.2-.8.7-.8h2.7c.6,0,.8.3.8.8v1.1h0c1.5-1,3.6-2.1,5.7-2.2,2.2,0,4,.5,5.2,2.7,1.9-1.4,4.3-2.7,6.7-2.7,5,0,5.5,3.3,5.5,7.1v11.2c0,.5-.2.7-.7.7Z"/>
    <path class="cls-2" d="M388.6,109.4c-2,0-2.2-1.1-2.2-2.2s.4-2.2,2.2-2.2,2.2.9,2.2,2.2-.3,2.2-2.2,2.2ZM390.6,130c0,.4-.2.7-.7.7h-2.7c-.5,0-.8-.2-.8-.7v-17.2c0-.5.2-.7.8-.7h2.7c.5,0,.7.3.7.7v17.2Z"/>
    <path class="cls-2" d="M401.5,131.1c-1.9,0-4.4-.3-5.9-.8-.8-.3-.9-.6-.8-1.3l.3-1.3c.1-.6.4-.6,1-.6,1.7.3,4.1.5,5.4.5,2.4,0,3.4-.6,3.4-2.2s-.6-2.1-3-2.5c-3.7-.5-7-1.3-7-5.5s2.9-5.7,7.1-5.7,4.2.2,5.8.8c.6.3.9.6.8,1.1l-.3,1.4c-.1.5-.3.6-1,.5-1.6-.2-3.8-.4-5.2-.4-2.4,0-3,.7-3,2.1s.9,1.7,3.2,2.1c3.6.5,6.9,1.3,6.9,5.8s-3.8,5.9-7.7,5.9Z"/>
    <path class="cls-2" d="M419,131.1c-1.9,0-4.4-.3-5.9-.8-.8-.3-.9-.6-.8-1.3l.3-1.3c.1-.6.4-.6,1-.6,1.7.3,4.1.5,5.4.5,2.4,0,3.4-.6,3.4-2.2s-.6-2.1-3-2.5c-3.7-.5-7-1.3-7-5.5s2.9-5.7,7.1-5.7,4.2.2,5.8.8c.6.3.9.6.8,1.1l-.3,1.4c-.1.5-.3.6-1,.5-1.6-.2-3.8-.4-5.2-.4-2.4,0-3,.7-3,2.1s.9,1.7,3.2,2.1c3.6.5,6.9,1.3,6.9,5.8s-3.8,5.9-7.7,5.9Z"/>
    <path class="cls-2" d="M432.9,109.4c-2,0-2.2-1.1-2.2-2.2s.4-2.2,2.2-2.2,2.2.9,2.2,2.2-.3,2.2-2.2,2.2ZM434.9,130c0,.4-.2.7-.7.7h-2.7c-.5,0-.8-.2-.8-.7v-17.2c0-.5.2-.7.8-.7h2.7c.5,0,.7.3.7.7v17.2Z"/>
    <path class="cls-2" d="M447.3,131.1c-7.6,0-8.1-5.6-8.1-9.9s.8-9.4,8.1-9.4,8.4,4.9,8.4,9.4-.5,9.9-8.4,9.9ZM447.4,115.4c-3.2,0-4,2.1-4,6s.7,6,3.9,6,4.1-1.9,4.1-6-.6-6-4.1-6Z"/>
    <path class="cls-2" d="M474.8,130.8h-2.7c-.5,0-.7-.2-.7-.7v-10.7c0-2.2-.5-3.7-2.7-3.7s-4.2,1.2-5.2,1.7v12.7c0,.5-.2.7-.7.7h-2.7c-.5,0-.7-.2-.7-.7v-17.1c0-.5.2-.8.7-.8h2.7c.5,0,.7.3.7.8v1.1s0,0,.1,0c1.4-1,4.1-2.3,6.4-2.3,5.1,0,5.6,3.4,5.6,7.2v11c0,.5-.2.7-.7.7Z"/>
  </g>
  <polygon class="cls-3" points="499.5 130.8 499.5 54.4 493 54.4 493 130.8 499.5 130.8 499.5 130.8"/>
  <g>
    <path class="cls-4" d="M0,48.3s78.5-10.2,80.7-10.6c3.4-.6,6.4-1.2,9.2-2,6.4-1.8,12.2-4.4,17.4-8,5-3.4,9.6-8.2,14.2-13.6,2.9-3.4,6-7.8,8.8-12.1V0c-3.4,5-6.7,9.4-10.1,13.2-4.5,5.1-9.3,9.3-14.2,12.4-5,3.3-10.6,5.7-16.8,7.2-2.7.7-5.7,1.3-9,1.7-2.2.3-4.4.5-6.6.8-.9,0-73.7,7.9-73.7,7.9v5.1Z"/>
    <path class="cls-4" d="M105.3,35.1c-4.9,2.8-10.6,4.9-16.9,6.2-2.7.5-5.6,1-8.9,1.4-2,.2-3.9.4-5.9.6-1.1,0-2.1.2-3.2.3-24.1,2.2-48,4.5-70.4,6.7v5.1c22.6-2.7,46.7-5.6,70.7-8.4,1.1-.1,2.1-.2,3.2-.4,2-.2,3.9-.4,5.9-.7,3.4-.5,6.4-1,9.2-1.6,6.5-1.5,12.4-3.8,17.5-6.9,5.1-3.1,9.5-7.3,14.3-12.6,3-3.3,6.3-7.9,9.4-12.2v-1.9c-3.7,5-7.2,9.2-10.6,12.8-4.7,4.9-9.5,8.8-14.4,11.6Z"/>
    <path class="cls-4" d="M119,33.8c-4.8,4.4-9.8,7.9-14.9,10.4-5,2.4-10.5,4.1-17,5.2-2.7.4-5.6.8-8.9,1.1L0,56.9v5.1l69.6-7.4,9-1c3.4-.4,6.4-.8,9-1.4,6.7-1.3,12.4-3.2,17.6-5.8,5.2-2.7,10.5-7.1,15.3-11.8,3.3-3.1,6.4-7.2,9.8-11.5v-1.7c-3.9,4.9-7.6,8.9-11.3,12.3Z"/>
    <path class="cls-4" d="M100.1,60.4c-4.6,2.6-8,4.1-14.5,4.7-3.9.4-8,.6-11.9.8-1.9,0-3.8.2-5.7.3-11.8.7-23.5,1.4-35.3,2.2L0,70.7v5.1l33.1-3.1c10.7-1,23.1-2.1,35.2-3.1l8.8-.7c3.4-.3,6.3-.5,8.9-.9,6.7-.9,12.4-2.2,17.5-4.2,5.5-2.1,10.6-5.3,15.8-9,4.6-3.4,11.1-10.1,11.1-10.2v-1.8c-4.2,4.1-6.6,6.5-11.2,9.5-5.5,3.7-14.9,5.6-19,7.9Z"/>
    <path class="cls-4" d="M101.8,70.1c-4.9,1.5-10.5,2.4-17,3-2.6.2-5.5.4-8.7.5l-8.8.4c-21.8,1-43.4,2.2-67.3,3.4v5.1c22.8-1.8,45.2-3.5,67.5-5.1l8.7-.6c3.4-.2,6.2-.5,8.8-.8,6.7-.8,12.4-1.9,17.4-3.5,5.6-1.8,11.1-4.4,16.2-7.7,3.8-2.4,7.6-5.4,11.6-8.9h0c-4.4,3.7-8.5,4.5-12.7,7-5.1,3.1-10.4,5.5-15.9,7.1Z"/>
    <path class="cls-4" d="M100.9,78.6c-5,1.2-10.4,1.9-17,2.4-2.5.2-5.3.3-8.6.4l-8.7.3c-21.9.8-44,1.8-66.7,2.8v5.1c22.5-1.5,44.6-3.1,66.8-4.5l8.7-.5c3.4-.2,6.2-.4,8.7-.6,6.7-.6,12.2-1.5,17.3-2.9,5.7-1.5,11.3-3.7,16.5-6.5,4-2.2,8.1-4.8,12.3-7.9v-2.2c-4.5,3.3-8.9,6-13.2,8.2-5.1,2.6-10.6,4.6-16.1,5.9Z"/>
    <path class="cls-4" d="M100.2,86.9c-5,.9-10.4,1.5-16.9,1.9-2.5.1-5.1.2-8.6.3L0,91.1v5.1l66.3-3.5,8.6-.4c3.3-.2,6.1-.3,8.6-.5,6.6-.5,12.1-1.2,17.2-2.3,5.8-1.2,11.4-3,16.7-5.2,4.3-1.8,8.5-4,13-6.7v-2c-4.7,2.8-9.3,5-13.7,6.8-5.2,2.1-10.7,3.7-16.4,4.7Z"/>
    <path class="cls-4" d="M99.6,95.3c-9.2,1.2-18.6,1.4-27.7,1.5-2.1,0-4.2,0-6.3.1L0,98.1v5.1l65.7-2.9c2.1,0,4.2-.2,6.3-.3,9.2-.4,18.7-.8,28-2.2,5.9-.9,11.5-2.3,16.8-4.1,4.4-1.5,8.9-3.4,13.5-5.6v-2c-4.8,2.3-9.6,4.1-14.1,5.6-5.2,1.6-10.8,2.8-16.6,3.6Z"/>
    <path class="cls-4" d="M99.1,103.7c-8.6.7-17.4.7-25.9.7s-5.3,0-7.9,0c-21.7,0-43.3.3-65.3.5v5.1c20.9-.7,43.1-1.5,65.3-2.1,2.6,0,5.3-.2,7.9-.2,8.5-.2,17.4-.4,26.1-1.4,6.1-.7,11.6-1.6,16.9-2.9,4.6-1.1,9.3-2.7,14.1-4.5v-1.9c-4.9,1.8-9.8,3.2-14.6,4.3-5.2,1.2-10.7,2-16.6,2.5Z"/>
    <path class="cls-4" d="M98.8,112c-3.6.1-7.5.2-11.9.2s-3.3,0-5,0l-16.9-.2c-11.5,0-23-.1-33.8-.1H0v5.1l31.3-.8c10.7-.3,22.3-.5,33.8-.7l16.9-.2c4.6,0,10.8-.2,16.9-.6,6.1-.4,11.6-1,16.9-1.9,4.8-.8,9.6-1.8,14.5-3.1v-1.8c-5,1.2-10,2.1-14.8,2.7-5.3.7-10.7,1.2-16.7,1.4Z"/>
    <path class="cls-4" d="M81.7,120l-16.9-.2c-21.5-.3-43-.7-64.9-1.1v5.1c20.9-.1,43.1-.3,64.9-.5l16.9-.3c5.7,0,11.2-.2,16.9-.4,11.6-.4,22-1.2,31.7-2.5v-1.8c-9.7,1.1-20.1,1.6-31.7,1.7-5.6,0-11.2,0-16.8,0Z"/>
    <polygon class="cls-4" points="130.3 129 0 125.7 0 130.8 130.3 130.8 130.3 129"/>
  </g>
  <path class="cls-4" d="M118.6,43.4c-4.9,4-8.8,6.9-14.8,9.3-5.3,2.1-10.9,3-17.4,3.9-4.2.6-8.5,1.5-12.7,1.7-1.7.1-3.4.2-5.1.4L0,63.7v5.1l68.8-6.7,8.9-.8c3.3-.3,6.2-.7,9-1.1,6.7-1.1,12.4-2.7,17.6-5,5.3-2.4,10.7-6.3,15.8-10.5,3.4-2.9,6.7-6.5,10.3-10.5v-1.8c-4.3,4.5-7.9,8.1-11.7,11.2Z"/>
  <path class="cls-4" d="M185.7,0s23.4,37.3,27.7,44.2c4.3,6.8,9.2,12.3,26.5,15.9,17.3,3.7,24.9,5.4,24.9,5.4v1.3s-11-2.4-25.2-5.5c-14.2-3.2-20-4.2-26.5-13.2-5.4-7.5-27.5-39.3-27.5-39.3V0Z"/>
  <path class="cls-4" d="M185.7,42.7s21.3,22.4,27.5,28.8c6.5,6.8,14.9,9.3,26.6,11.4,11.1,2,25.1,4.3,25.1,4.3v1.3s-13.1-2.2-25.1-4.2c-11.7-2-19.9-3.1-26.6-9.3-6-5.5-27.4-25.6-27.4-25.6v-6.6Z"/>
  <path class="cls-4" d="M185.7,52.7s20.3,18.9,27.5,25.3c6.6,5.9,12,7.8,26.6,10.4,14.6,2.6,25,4.2,25,4.2v1.3s-13.2-2.2-25.1-4.1c-11.9-1.9-19.5-2.6-26.6-8.4-8.2-6.7-27.5-22.6-27.5-22.6v-6.2Z"/>
  <path class="cls-4" d="M185.7,63.5s23.2,18.4,27.5,21.6c4.3,3.2,10.1,7,26.7,9.4,16.5,2.4,25,3.6,25,3.6v1.4s-15-2.2-25-3.4c-10-1.3-17.7-1.8-26.6-7.8-8.7-5.8-27.6-19.1-27.6-19.1v-5.7Z"/>
  <path class="cls-4" d="M185.7,73.8s23.3,15.5,27.7,17.9c4.4,2.4,9.6,6.4,26.6,8.6,17,2.2,25,3.1,25,3.1v1.3s-14-1.5-25-2.7c-11-1.2-18.5-2.8-26.6-7.3-8.2-4.5-27.5-15.8-27.5-15.8v-5.2Z"/>
  <path class="cls-4" d="M185.7,84.1s20.6,11.2,27.5,14.7c7.8,3.9,14.5,5.8,26.6,7.2,11.9,1.4,25,2.8,25,2.8v1.3s-12.1-1.3-25-2.5c-12.8-1.2-17.4-1.8-26.6-5.9-8.3-3.7-27.5-12.6-27.5-12.6v-4.9Z"/>
  <path class="cls-4" d="M185.7,94.6s16.2,7,27.7,11.5c11.2,4.5,19.8,4.8,26.6,5.6,3,.3,24.9,2.6,24.9,2.6v1.3s-13.1-1-25-2.1c-11.9-1-17-1.5-26.6-4.7-9.7-3.2-27.6-9.5-27.6-9.5v-4.7Z"/>
  <path class="cls-4" d="M185.7,105.3s16.4,5.1,27.6,8c11.2,2.9,21.5,4.1,26.6,4.5,5.2.4,25,2,25,2v1.2s-11.3-.8-25-1.7c-11.1-.8-20.1-1.6-26.6-3.1-7.3-1.6-27.5-6.4-27.5-6.4v-4.4Z"/>
  <path class="cls-4" d="M185.7,115.8s13.4,2.3,27.6,4.7c10.6,1.8,25,2.9,26.6,2.9,1.5,0,25,1.7,25,1.7v1.3s-15-.8-25-1.3c-10.4-.6-20.8-1.2-26.6-1.8-13.2-1.4-27.5-3.2-27.5-3.2v-4.2Z"/>
  <path class="cls-4" d="M185.7,126.6s21.2.8,27.6.9c6.4.1,51.6,2,51.6,2v1.2h-79.2v-4.1Z"/>
  <path class="cls-4" d="M239.9,65.9c-19.2-4.1-23.5-11.1-26.7-15.5-3.2-4.3-27.4-39.8-27.4-39.8v8c1,1.2,21.7,28.4,27.5,35.9,6.6,8.4,16.8,10.4,26.6,12.5,9.8,2.1,25,5,25,5v-1.1s-20.1-4-25-5Z"/>
  <path class="cls-4" d="M239.9,71.5c-15.7-3.1-22.1-8-26.7-14.1-4.6-6-27.4-36.1-27.4-36.1v7.6c1,1.1,21.8,25.9,27.4,32.3,6.5,7.5,15.7,9.4,26.7,11.5,11,2,25,4.7,25,4.7v-1.1s-16-3-25-4.8Z"/>
  <path class="cls-4" d="M239.9,77.3c-16.4-3.2-19.7-5.8-26.6-13.4-4.4-4.8-26.6-31-27.5-32.1v7s20.8,22.2,27.4,28.7c8.8,8.6,17,9.2,26.7,11,9.7,1.7,25,4.5,25,4.5v-1.2s-18.5-3.3-25-4.5Z"/>
  <polygon class="cls-3" points="168.3 130.8 168.3 54.4 54.2 54.4 54.2 130.8 168.3 130.8 168.3 130.8"/>
  <g>
    <polygon class="cls-1" points="112.5 65.3 116.4 65.3 113.2 67.7 114.5 71.7 111.3 69.3 108.1 71.7 109.4 67.7 106.1 65.3 110.1 65.3 111.3 61.4 112.5 65.3 112.5 65.3"/>
    <polygon class="cls-1" points="112.6 116.2 116.6 116.2 113.4 118.6 114.6 122.4 111.4 120 108.3 122.4 109.5 118.6 106.3 116.2 110.2 116.2 111.4 112.5 112.6 116.2 112.6 116.2"/>
    <polygon class="cls-1" points="125.2 112.8 129.2 112.8 126 115.2 127.2 119 124 116.7 120.8 119 122.1 115.2 118.9 112.8 122.8 112.8 124 109.1 125.2 112.8 125.2 112.8"/>
    <polygon class="cls-1" points="125.2 68.6 129.2 68.6 126 71 127.2 74.9 124 72.5 120.8 74.9 122.1 71 118.9 68.6 122.8 68.6 124 64.9 125.2 68.6 125.2 68.6"/>
    <polygon class="cls-1" points="134.6 78 138.5 78 135.3 80.4 136.6 84.2 133.4 81.9 130.2 84.2 131.5 80.4 128.2 78 132.2 78 133.4 74.3 134.6 78 134.6 78"/>
    <polygon class="cls-1" points="134.6 103.6 138.5 103.6 135.3 106 136.6 109.8 133.4 107.4 130.2 109.8 131.5 106 128.2 103.6 132.2 103.6 133.4 99.9 134.6 103.6 134.6 103.6"/>
    <polygon class="cls-1" points="138.1 90.6 142 90.6 138.8 93 140.1 96.8 136.9 94.5 133.7 96.8 135 93 131.7 90.6 135.7 90.6 136.9 86.9 138.1 90.6 138.1 90.6"/>
    <polygon class="cls-1" points="99.6 68.7 103.6 68.7 100.4 71.1 101.6 74.9 98.5 72.5 95.3 74.9 96.5 71.1 93.3 68.7 97.3 68.7 98.5 65 99.6 68.7 99.6 68.7"/>
    <polygon class="cls-1" points="90.5 78 94.5 78 91.3 80.4 92.5 84.2 89.4 81.9 86.2 84.2 87.4 80.4 84.2 78 88.2 78 89.4 74.3 90.5 78 90.5 78"/>
    <polygon class="cls-1" points="87.2 90.6 91.1 90.6 87.9 93 89.2 96.8 86 94.5 82.8 96.8 84.1 93 80.8 90.6 84.8 90.6 86 86.9 87.2 90.6 87.2 90.6"/>
    <polygon class="cls-1" points="90.5 103.6 94.5 103.6 91.3 106 92.5 109.8 89.4 107.5 86.2 109.8 87.4 106 84.2 103.6 88.2 103.6 89.4 99.9 90.5 103.6 90.5 103.6"/>
    <polygon class="cls-1" points="99.8 112.8 103.7 112.8 100.5 115.2 101.8 119 98.6 116.7 95.4 119 96.7 115.2 93.4 112.8 97.4 112.8 98.6 109.1 99.8 112.8 99.8 112.8"/>
  </g>
</svg>