<?xml version="1.0" encoding="UTF-8"?>
<svg id="EN" xmlns="http://www.w3.org/2000/svg" version="1.1" viewBox="0 0 265 183.5">
  <defs>
    <style>
      .cls-1 {
        fill: #fff200;
      }

      .cls-1, .cls-2, .cls-3, .cls-4, .cls-5 {
        stroke-width: 0px;
      }

      .cls-2 {
        fill: #636466;
      }

      .cls-3 {
        fill: #bcbec0;
      }

      .cls-4 {
        fill: #034ea2;
      }

      .cls-5 {
        fill: #fff;
      }
    </style>
  </defs>
  <g>
    <path class="cls-3" d="M0,48.2s78.5-10.2,80.7-10.5c3.4-.6,6.4-1.2,9.2-2,6.4-1.7,12.2-4.4,17.4-7.9,5-3.3,9.6-8.2,14.2-13.5,2.9-3.4,6-7.8,8.8-12V.2c-3.4,5-6.7,9.3-10.1,13.1-4.5,5.1-9.3,9.2-14.2,12.3-5,3.2-10.6,5.6-16.8,7.2-2.7.7-5.7,1.2-9,1.7-2.2.3-4.4.5-6.6.8-.9,0-73.7,7.8-73.7,7.8v5.1Z"/>
    <path class="cls-3" d="M105.3,35c-4.9,2.8-10.6,4.9-16.9,6.1-2.7.5-5.6,1-8.9,1.3-2,.2-3.9.4-5.9.6-1.1,0-2.1.2-3.2.3-24.1,2.2-48,4.5-70.4,6.6v5.1c22.6-2.7,46.7-5.6,70.7-8.3,1.1-.1,2.1-.2,3.2-.4,2-.2,3.9-.4,5.9-.7,3.4-.5,6.4-1,9.2-1.6,6.5-1.5,12.4-3.8,17.5-6.8,5.1-3,9.5-7.3,14.3-12.5,3-3.2,6.3-7.8,9.4-12.1v-1.9c-3.7,5-7.2,9.2-10.6,12.7-4.7,4.9-9.5,8.7-14.4,11.5Z"/>
    <path class="cls-3" d="M119,33.8c-4.8,4.4-9.8,7.8-14.9,10.3-5,2.4-10.5,4.1-17,5.1-2.7.4-5.6.8-8.9,1.1L0,56.7v5.1l69.6-7.4,9-.9c3.4-.4,6.4-.8,9-1.3,6.7-1.3,12.4-3.2,17.6-5.8,5.2-2.6,10.5-7,15.3-11.7,3.3-3.1,6.4-7.2,9.8-11.4v-1.7c-3.9,4.8-7.6,8.8-11.3,12.2Z"/>
    <path class="cls-3" d="M100.1,60.2c-4.6,2.6-8,4-14.5,4.7-3.9.4-8,.6-11.9.8-1.9,0-3.8.2-5.7.3-11.8.7-23.5,1.4-35.3,2.2L0,70.4v5.1l33.1-3c10.7-1,23.1-2.1,35.2-3.1l8.8-.7c3.4-.3,6.3-.5,8.9-.9,6.7-.9,12.4-2.2,17.5-4.1,5.5-2,10.6-5.2,15.8-8.9,4.6-3.4,11.1-10,11.1-10.1v-1.8c-4.2,4.1-6.6,6.4-11.2,9.4-5.5,3.6-14.9,5.6-19,7.8Z"/>
    <path class="cls-3" d="M101.8,69.8c-4.9,1.4-10.5,2.4-17,3-2.6.2-5.5.4-8.7.5l-8.8.4c-21.8,1-43.4,2.1-67.3,3.4v5.1c22.8-1.8,45.2-3.5,67.5-5.1l8.7-.6c3.4-.2,6.2-.5,8.8-.8,6.7-.7,12.4-1.9,17.4-3.5,5.6-1.8,11.1-4.3,16.2-7.7,3.8-2.4,7.6-5.3,11.6-8.8h0c-4.4,3.6-8.5,4.5-12.7,7-5.1,3.1-10.4,5.4-15.9,7Z"/>
    <path class="cls-3" d="M100.9,78.3c-5,1.2-10.4,1.9-17,2.4-2.5.2-5.3.3-8.6.4l-8.7.3c-21.9.8-44,1.8-66.7,2.8v5.1c22.5-1.5,44.6-3,66.8-4.4l8.7-.5c3.4-.2,6.2-.4,8.7-.6,6.7-.6,12.2-1.5,17.3-2.8,5.7-1.5,11.3-3.6,16.5-6.4,4-2.1,8.1-4.7,12.3-7.8v-2.2c-4.5,3.3-8.9,5.9-13.2,8.1-5.1,2.6-10.6,4.5-16.1,5.8Z"/>
    <path class="cls-3" d="M100.2,86.5c-5,.9-10.4,1.5-16.9,1.8-2.5.1-5.1.2-8.6.3L0,90.7v5.1l66.3-3.5,8.6-.4c3.3-.2,6.1-.3,8.6-.5,6.6-.5,12.1-1.2,17.2-2.3,5.8-1.2,11.4-3,16.7-5.2,4.3-1.8,8.5-4,13-6.7v-2c-4.7,2.8-9.3,5-13.7,6.7-5.2,2.1-10.7,3.6-16.4,4.7Z"/>
    <path class="cls-3" d="M99.6,94.8c-9.2,1.2-18.6,1.4-27.7,1.5-2.1,0-4.2,0-6.3.1L0,97.6v5.1l65.7-2.8c2.1,0,4.2-.2,6.3-.3,9.2-.4,18.7-.7,28-2.2,5.9-.9,11.5-2.3,16.8-4.1,4.4-1.5,8.9-3.4,13.5-5.6v-1.9c-4.8,2.2-9.6,4.1-14.1,5.5-5.2,1.6-10.8,2.8-16.6,3.6Z"/>
    <path class="cls-3" d="M99.1,103.1c-8.6.7-17.4.7-25.9.7s-5.3,0-7.9,0c-21.7,0-43.3.3-65.3.5v5.1c20.9-.7,43.1-1.5,65.3-2.1,2.6,0,5.3-.2,7.9-.2,8.5-.2,17.4-.4,26.1-1.4,6.1-.7,11.6-1.6,16.9-2.9,4.6-1.1,9.3-2.6,14.1-4.5v-1.9c-4.9,1.8-9.8,3.2-14.6,4.2-5.2,1.2-10.7,2-16.6,2.4Z"/>
    <path class="cls-3" d="M98.8,111.4c-3.6.1-7.5.2-11.9.2s-3.3,0-5,0l-16.9-.2c-11.5,0-23-.1-33.8-.1H0v5.1l31.3-.8c10.7-.3,22.3-.5,33.8-.7l16.9-.2c4.6,0,10.8-.2,16.9-.6,6.1-.4,11.6-1,16.9-1.8,4.8-.8,9.6-1.8,14.5-3v-1.8c-5,1.2-10,2.1-14.8,2.7-5.3.7-10.7,1.2-16.7,1.4Z"/>
    <path class="cls-3" d="M81.7,119.3l-16.9-.2c-21.5-.3-43-.7-64.9-1.1v5.1c20.9-.1,43.1-.3,64.9-.5l16.9-.2c5.7,0,11.2-.2,16.9-.4,11.6-.4,22-1.2,31.7-2.5v-1.8c-9.7,1-20.1,1.6-31.7,1.7-5.6,0-11.2,0-16.8,0Z"/>
    <polygon class="cls-3" points="130.3 128.3 0 125 0 130 130.3 130 130.3 128.3"/>
  </g>
  <path class="cls-3" d="M118.6,43.3c-4.9,4-8.8,6.8-14.8,9.2-5.3,2.1-10.9,3-17.4,3.8-4.2.6-8.5,1.4-12.7,1.7-1.7.1-3.4.2-5.1.4L0,63.5v5.1l68.8-6.7,8.9-.8c3.3-.3,6.2-.7,9-1.1,6.7-1.1,12.4-2.7,17.6-5,5.3-2.4,10.7-6.2,15.8-10.4,3.4-2.9,6.7-6.5,10.3-10.4v-1.8c-4.3,4.5-7.9,8-11.7,11.1Z"/>
  <polygon class="cls-5" points="54.2 178.5 168.3 178.5 168.3 127.7 54.2 127.7 54.2 178.5 54.2 178.5"/>
  <polygon class="cls-4" points="168.3 130 168.3 53.6 54.2 53.6 54.2 130 168.3 130 168.3 130"/>
  <polygon class="cls-1" points="112.5 64.5 116.4 64.5 113.2 67 114.5 71 111.3 68.5 108.1 71 109.4 67 106.1 64.5 110.1 64.5 111.3 60.6 112.5 64.5 112.5 64.5"/>
  <polygon class="cls-1" points="112.6 115.4 116.6 115.4 113.4 117.8 114.6 121.6 111.4 119.3 108.3 121.6 109.5 117.8 106.3 115.4 110.2 115.4 111.4 111.7 112.6 115.4 112.6 115.4"/>
  <polygon class="cls-1" points="125.2 112.1 129.2 112.1 126 114.5 127.2 118.3 124 115.9 120.8 118.3 122.1 114.5 118.9 112.1 122.8 112.1 124 108.3 125.2 112.1 125.2 112.1"/>
  <polygon class="cls-1" points="125.2 67.9 129.2 67.9 126 70.3 127.2 74.1 124 71.8 120.8 74.1 122.1 70.3 118.9 67.9 122.8 67.9 124 64.2 125.2 67.9 125.2 67.9"/>
  <polygon class="cls-1" points="134.6 77.2 138.5 77.2 135.3 79.6 136.6 83.5 133.4 81.1 130.2 83.5 131.5 79.6 128.2 77.2 132.2 77.2 133.4 73.5 134.6 77.2 134.6 77.2"/>
  <polygon class="cls-1" points="134.6 102.8 138.5 102.8 135.3 105.2 136.6 109 133.4 106.7 130.2 109 131.5 105.2 128.2 102.8 132.2 102.8 133.4 99.1 134.6 102.8 134.6 102.8"/>
  <polygon class="cls-1" points="138.1 89.8 142 89.8 138.8 92.2 140.1 96.1 136.9 93.7 133.7 96.1 135 92.2 131.7 89.8 135.7 89.8 136.9 86.1 138.1 89.8 138.1 89.8"/>
  <polygon class="cls-1" points="99.6 67.9 103.6 67.9 100.4 70.3 101.6 74.1 98.5 71.8 95.3 74.1 96.5 70.3 93.3 67.9 97.3 67.9 98.5 64.2 99.6 67.9 99.6 67.9"/>
  <polygon class="cls-1" points="90.5 77.3 94.5 77.3 91.3 79.7 92.5 83.5 89.4 81.1 86.2 83.5 87.4 79.7 84.2 77.3 88.2 77.3 89.4 73.6 90.5 77.3 90.5 77.3"/>
  <polygon class="cls-1" points="87.2 89.9 91.1 89.9 87.9 92.3 89.2 96.1 86 93.7 82.8 96.1 84.1 92.3 80.8 89.9 84.8 89.9 86 86.2 87.2 89.9 87.2 89.9"/>
  <polygon class="cls-1" points="90.5 102.9 94.5 102.9 91.3 105.3 92.5 109.1 89.4 106.7 86.2 109.1 87.4 105.3 84.2 102.9 88.2 102.9 89.4 99.2 90.5 102.9 90.5 102.9"/>
  <polygon class="cls-1" points="99.8 112.1 103.7 112.1 100.5 114.5 101.8 118.3 98.6 115.9 95.4 118.3 96.7 114.5 93.4 112.1 97.4 112.1 98.6 108.4 99.8 112.1 99.8 112.1"/>
  <polygon class="cls-4" points="54.2 183.5 168.3 183.5 168.3 177 54.2 177 54.2 183.5 54.2 183.5"/>
  <path class="cls-3" d="M184.6,0s23.8,37.1,28.2,43.9c4.4,6.8,9.3,12.2,26.9,15.9,17.6,3.7,25.3,5.4,25.3,5.4v1.3s-11.2-2.3-25.6-5.5c-14.4-3.2-20.3-4.2-26.8-13.2-5.5-7.5-27.9-39.1-27.9-39.1V0Z"/>
  <path class="cls-3" d="M184.6,10.5s24.6,35.2,27.9,39.6c3.3,4.3,7.7,11.3,27.1,15.4,5,1.1,25.5,5.1,25.5,5.1v1.1s-15.5-3-25.5-5.1c-9.9-2.1-20.4-4-27-12.4-6-7.6-28-35.8-28-35.8v-7.9Z"/>
  <path class="cls-3" d="M184.6,21.1s23.2,29.9,27.9,35.9c4.7,6,11.1,10.9,27.1,14,9.2,1.8,25.4,4.7,25.4,4.7v1.1s-14.2-2.6-25.4-4.7c-11.2-2-20.5-4-27.1-11.4-5.8-6.5-27.9-32.2-27.9-32.2v-7.5Z"/>
  <path class="cls-3" d="M184.5,31.5s23.5,27.2,28,32c7,7.5,10.4,10.1,27,13.3,6.6,1.3,25.4,4.5,25.4,4.5v1.2s-15.5-2.8-25.4-4.5c-9.9-1.7-18.2-2.4-27.1-10.9-6.8-6.5-27.9-28.6-27.9-28.6v-7Z"/>
  <path class="cls-3" d="M184.6,42.3s21.7,22.3,27.9,28.6c6.6,6.8,15.2,9.3,27,11.4,11.3,2,25.5,4.2,25.5,4.2v1.3s-13.3-2.1-25.5-4.2c-11.9-2-20.2-3.1-27-9.3-6.1-5.5-27.9-25.5-27.9-25.5v-6.5Z"/>
  <path class="cls-3" d="M184.6,52.4s20.6,18.8,27.9,25.2c6.7,5.9,12.2,7.7,27,10.3,14.8,2.6,25.4,4.2,25.4,4.2v1.3s-13.4-2.2-25.5-4c-12.1-1.9-19.7-2.6-27-8.4-8.3-6.6-27.9-22.4-27.9-22.4v-6.1Z"/>
  <path class="cls-3" d="M184.5,63.1s23.5,18.3,27.9,21.5c4.4,3.2,10.2,6.9,27.1,9.3,16.7,2.4,25.3,3.6,25.3,3.6v1.4s-15.2-2.2-25.3-3.4c-10.1-1.3-17.9-1.8-27-7.7-8.9-5.8-27.9-18.9-27.9-18.9v-5.7Z"/>
  <path class="cls-3" d="M184.5,73.4s23.6,15.4,28,17.8c4.5,2.4,9.7,6.4,27,8.6,17.2,2.2,25.3,3.1,25.3,3.1v1.3s-14.3-1.5-25.4-2.7c-11.1-1.2-18.7-2.8-27-7.2-8.3-4.5-27.9-15.6-27.9-15.6v-5.2Z"/>
  <path class="cls-3" d="M184.6,83.6s20.9,11.1,27.9,14.6c7.9,3.9,14.7,5.7,27,7.2,12.1,1.4,25.4,2.8,25.4,2.8v1.3s-12.3-1.3-25.4-2.5c-13-1.2-17.6-1.8-27-5.8-8.4-3.7-28-12.6-28-12.6v-4.9Z"/>
  <path class="cls-3" d="M184.6,94.1s16.4,6.9,28,11.4c11.4,4.4,20.1,4.8,27,5.6,3.1.3,25.3,2.6,25.3,2.6v1.3s-13.3-1-25.3-2.1c-12.1-1-17.3-1.5-27-4.7-9.9-3.2-28-9.4-28-9.4v-4.6Z"/>
  <path class="cls-3" d="M184.6,104.6s16.6,5.1,28,8c11.4,2.9,21.8,4.1,27,4.5,5.2.3,25.3,1.9,25.3,1.9v1.2s-11.3-.8-25.3-1.7c-11.3-.8-20.4-1.6-27-3.1-7.4-1.6-28-6.4-28-6.4v-4.4Z"/>
  <path class="cls-3" d="M184.5,115.1s13.7,2.3,28,4.6c10.8,1.8,25.4,2.9,27,2.9,1.6,0,25.4,1.7,25.4,1.7v1.3s-15.3-.8-25.4-1.3c-10.6-.6-21.1-1.2-27-1.8-13.4-1.4-28-3.2-28-3.2v-4.2Z"/>
  <path class="cls-3" d="M184.6,125.9s21.5.8,28,.9c6.5.1,52.4,1.9,52.4,1.9v1.3h-80.4v-4.1Z"/>
  <g>
    <path class="cls-2" d="M60.8,137.5c0-.2.1-.4.4-.4h6.6c.2,0,.3.1.3.3v1.1c0,.2,0,.3-.4.3h-4.9v3.1h4.4c.2,0,.4.1.4.3v1.1c0,.2,0,.3-.4.3h-4.4v3.5h5c.2,0,.3.1.3.3v1.1c0,.2,0,.3-.3.3h-6.7c-.3,0-.4-.1-.4-.3v-11.3Z"/>
    <path class="cls-2" d="M76.6,149.1h-1.3c-.3,0-.3-.1-.3-.3v-.6h0c-.7.5-1.9,1.1-3,1.1-2.4,0-2.7-1.4-2.7-3.3v-5.3c0-.2,0-.4.3-.4h1.3c.2,0,.3.1.3.4v5.1c0,1.1.2,1.8,1.3,1.8s2-.6,2.4-.8v-6c0-.2,0-.4.3-.4h1.3c.3,0,.3.1.3.4v8.1c0,.2,0,.3-.3.3Z"/>
    <path class="cls-2" d="M80.4,148.8c0,.2,0,.3-.3.3h-1.3c-.3,0-.3-.1-.3-.3v-8.1c0-.2,0-.4.3-.4h1.3c.3,0,.4.1.4.4v.8h0c.5-.5,1.8-1.1,2.7-1.2.2,0,.4,0,.4.3v1.2c.1.3.2.4-.2.4-1,.2-2.3.6-2.9.8v5.8Z"/>
    <path class="cls-2" d="M88,149.3c-3.6,0-3.9-2.6-3.9-4.7s.4-4.4,3.9-4.4,4,2.3,4,4.4-.3,4.7-4,4.7ZM88,141.9c-1.5,0-1.9,1-1.9,2.8s.3,2.8,1.9,2.8,2-.9,2-2.8-.3-2.8-1.9-2.8Z"/>
    <path class="cls-2" d="M97.2,149.3c-.6,0-1.4-.1-2.3-.4h0v3.2c0,.2,0,.4-.3.4h-1.3c-.3,0-.3-.1-.3-.4v-11.4c0-.2,0-.4.3-.4h1.3c.3,0,.3.1.3.4v.5h0c.6-.4,1.8-1,2.8-1,2.4,0,3,1.8,3,4.5s-.7,4.6-3.6,4.6ZM97.4,142c-.7,0-1.9.5-2.4.8v4.5c.8.2,1.5.3,2.1.3,1.3,0,1.7-.7,1.7-2.9s-.4-2.7-1.4-2.7Z"/>
    <path class="cls-2" d="M103.9,145.3c0,1.8.7,2.3,2.2,2.3s1.7-.1,2.3-.2c.3,0,.4,0,.5.3v.6c.2.3.1.4-.2.6-.7.3-2,.5-2.9.5-3.4,0-3.9-2.2-3.9-4.5s.3-4.6,3.8-4.6,3.8,2.1,3.9,4c0,.6-.2,1.1-.9,1.1h-4.8ZM103.9,143.9h3.6c0-1.1-.3-2.2-1.8-2.2s-1.7.8-1.8,2.2Z"/>
    <path class="cls-2" d="M116,148.1c-.9.7-2.1,1.2-3.3,1.2-1.9,0-2.5-1-2.5-2.6,0-2.1,1.1-3,3.4-3h2.3v-.5c0-1.1-.4-1.5-1.9-1.5s-1.7,0-2.4.2c-.4,0-.5,0-.5-.2l-.2-.7c0-.2,0-.4.4-.5.8-.3,2.2-.4,3-.4,3.1,0,3.5,1.3,3.5,3.3v3.5c0,.7,0,.8.6.8.3,0,.3,0,.3.3v.8c0,.2-.1.3-.4.4-.3,0-.6,0-.8,0-.8,0-1.4-.3-1.5-1.1h0ZM115.9,145.1h-2.2c-.9,0-1.5.3-1.5,1.5s.3,1,1.1,1,1.9-.5,2.6-.8v-1.7Z"/>
    <path class="cls-2" d="M126.7,149.1h-1.3c-.2,0-.3-.1-.3-.3v-5.1c0-1.1-.2-1.8-1.3-1.8s-2,.6-2.5.8v6c0,.2,0,.3-.3.3h-1.3c-.3,0-.3-.1-.3-.3v-8.1c0-.2,0-.4.3-.4h1.3c.3,0,.3.1.3.4v.5s0,0,0,0c.7-.5,1.9-1.1,3-1.1,2.4,0,2.6,1.6,2.6,3.4v5.2c0,.2,0,.3-.3.3Z"/>
    <path class="cls-2" d="M65.5,156c.9,0,2.3.1,3.3.5.3.1.4.3.3.6l-.2.7c0,.2-.1.3-.5.3-.9-.1-2-.2-2.9-.2-2.4,0-2.8,2-2.8,4.3s.5,4.2,2.8,4.2,1.9-.1,2.9-.2c.3,0,.4,0,.5.3v.7c.2.3.1.5-.2.6-.9.4-2.4.5-3.3.5-4,0-4.9-3-4.9-6s.8-6.2,4.9-6.2Z"/>
    <path class="cls-2" d="M73.2,168.3c-3.6,0-3.9-2.6-3.9-4.7s.4-4.4,3.9-4.4,4,2.3,4,4.4-.3,4.7-4,4.7ZM73.2,160.9c-1.5,0-1.9,1-1.9,2.8s.3,2.8,1.9,2.8,2-.9,2-2.8-.3-2.8-1.9-2.8Z"/>
    <path class="cls-2" d="M90.8,168.1h-1.3c-.3,0-.3-.1-.3-.3v-5.1c0-1.3-.3-1.7-1.2-1.7s-1.7.5-2.3.8c0,.2,0,.5,0,.9v5.1c0,.2,0,.3-.3.3h-1.3c-.2,0-.3-.1-.3-.3v-5.2c0-1.1-.3-1.6-1.2-1.6s-1.6.5-2.3.8v6c0,.2,0,.3-.3.3h-1.3c-.2,0-.3-.1-.3-.3v-8.1c0-.2,0-.4.3-.4h1.3c.3,0,.4.1.4.4v.5h0c.7-.5,1.7-1,2.7-1,1,0,1.9.2,2.5,1.3.9-.7,2-1.3,3.2-1.3,2.4,0,2.6,1.5,2.6,3.3v5.3c0,.2,0,.3-.3.3Z"/>
    <path class="cls-2" d="M104.9,168.1h-1.3c-.3,0-.3-.1-.3-.3v-5.1c0-1.3-.3-1.7-1.2-1.7s-1.7.5-2.3.8c0,.2,0,.5,0,.9v5.1c0,.2,0,.3-.3.3h-1.3c-.2,0-.3-.1-.3-.3v-5.2c0-1.1-.3-1.6-1.2-1.6s-1.6.5-2.3.8v6c0,.2,0,.3-.3.3h-1.3c-.2,0-.3-.1-.3-.3v-8.1c0-.2,0-.4.3-.4h1.3c.3,0,.4.1.4.4v.5h0c.7-.5,1.7-1,2.7-1,1,0,1.9.2,2.5,1.3.9-.7,2-1.3,3.2-1.3,2.4,0,2.6,1.5,2.6,3.3v5.3c0,.2,0,.3-.3.3Z"/>
    <path class="cls-2" d="M107.7,158c-.9,0-1.1-.5-1.1-1s.2-1,1.1-1,1.1.4,1.1,1-.2,1-1.1,1ZM108.7,167.8c0,.2,0,.3-.3.3h-1.3c-.3,0-.4-.1-.4-.3v-8.1c0-.3.1-.3.4-.3h1.3c.3,0,.3.1.3.3v8.1Z"/>
    <path class="cls-2" d="M113.2,168.3c-.9,0-2.1-.1-2.8-.4-.4-.1-.4-.3-.4-.6v-.6c.2-.3.3-.3.6-.3.8.1,1.9.2,2.6.2,1.2,0,1.6-.3,1.6-1s-.3-1-1.4-1.2c-1.8-.3-3.3-.6-3.3-2.6s1.4-2.7,3.4-2.7,2,.1,2.7.4c.3.1.4.3.4.5v.6c-.2.3-.3.3-.6.3-.8,0-1.8-.2-2.4-.2-1.2,0-1.4.3-1.4,1s.4.8,1.5,1c1.7.3,3.3.6,3.3,2.7s-1.8,2.8-3.6,2.8Z"/>
    <path class="cls-2" d="M120.7,168.3c-.9,0-2.1-.1-2.8-.4-.4-.1-.4-.3-.4-.6v-.6c.2-.3.3-.3.6-.3.8.1,1.9.2,2.6.2,1.2,0,1.6-.3,1.6-1s-.3-1-1.4-1.2c-1.8-.3-3.3-.6-3.3-2.6s1.4-2.7,3.4-2.7,2,.1,2.7.4c.3.1.4.3.4.5v.6c-.2.3-.3.3-.6.3-.8,0-1.8-.2-2.4-.2-1.2,0-1.4.3-1.4,1s.4.8,1.5,1c1.7.3,3.3.6,3.3,2.7s-1.8,2.8-3.6,2.8Z"/>
    <path class="cls-2" d="M126.5,158c-.9,0-1.1-.5-1.1-1s.2-1,1.1-1,1.1.4,1.1,1-.2,1-1.1,1ZM127.5,167.8c0,.2,0,.3-.3.3h-1.3c-.3,0-.4-.1-.4-.3v-8.1c0-.3.1-.3.4-.3h1.3c.3,0,.3.1.3.3v8.1Z"/>
    <path class="cls-2" d="M132.7,168.3c-3.6,0-3.9-2.6-3.9-4.7s.4-4.4,3.9-4.4,4,2.3,4,4.4-.3,4.7-4,4.7ZM132.7,160.9c-1.5,0-1.9,1-1.9,2.8s.3,2.8,1.9,2.8,2-.9,2-2.8-.3-2.8-1.9-2.8Z"/>
    <path class="cls-2" d="M145,168.1h-1.3c-.2,0-.3-.1-.3-.3v-5.1c0-1.1-.2-1.8-1.3-1.8s-2,.6-2.5.8v6c0,.2,0,.3-.3.3h-1.3c-.3,0-.3-.1-.3-.3v-8.1c0-.2,0-.4.3-.4h1.3c.3,0,.3.1.3.4v.5s0,0,0,0c.7-.5,1.9-1.1,3-1.1,2.4,0,2.6,1.6,2.6,3.4v5.2c0,.2,0,.3-.3.3Z"/>
  </g>
</svg>