<?xml version="1.0" encoding="UTF-8"?>
<svg id="Layer_1" data-name="Layer 1" xmlns="http://www.w3.org/2000/svg" version="1.1" xmlns:xlink="http://www.w3.org/1999/xlink" viewBox="0 0 368.5 98.1">
  <defs>
    <style>
      .cls-1 {
        clip-path: url(#clippath-11);
      }

      .cls-2 {
        fill: url(#linear-gradient);
      }

      .cls-2, .cls-3, .cls-4, .cls-5, .cls-6, .cls-7, .cls-8, .cls-9, .cls-10, .cls-11, .cls-12, .cls-13, .cls-14 {
        stroke-width: 0px;
      }

      .cls-3 {
        fill: url(#linear-gradient-6);
      }

      .cls-15 {
        clip-path: url(#clippath-2);
      }

      .cls-16 {
        clip-path: url(#clippath-13);
      }

      .cls-4 {
        fill: #243e90;
      }

      .cls-17 {
        clip-path: url(#clippath-6);
      }

      .cls-5 {
        fill: url(#linear-gradient-5);
      }

      .cls-6 {
        fill: none;
      }

      .cls-18 {
        clip-path: url(#clippath-7);
      }

      .cls-19 {
        clip-path: url(#clippath-1);
      }

      .cls-20 {
        clip-path: url(#clippath-4);
      }

      .cls-21 {
        clip-path: url(#clippath-12);
      }

      .cls-7 {
        fill: url(#linear-gradient-2);
      }

      .cls-8 {
        fill: url(#radial-gradient-2);
      }

      .cls-9 {
        fill: url(#linear-gradient-3);
      }

      .cls-22 {
        clip-path: url(#clippath-9);
      }

      .cls-23 {
        clip-path: url(#clippath);
      }

      .cls-10 {
        fill: url(#radial-gradient);
      }

      .cls-24 {
        clip-path: url(#clippath-3);
      }

      .cls-25 {
        clip-path: url(#clippath-8);
      }

      .cls-11 {
        fill: #fff;
      }

      .cls-26 {
        mask: url(#mask-1);
      }

      .cls-27 {
        mask: url(#mask);
      }

      .cls-28 {
        clip-path: url(#clippath-14);
      }

      .cls-29 {
        clip-path: url(#clippath-5);
      }

      .cls-12 {
        fill: url(#radial-gradient-3);
      }

      .cls-30 {
        clip-path: url(#clippath-10);
      }

      .cls-13 {
        fill: url(#linear-gradient-4);
      }

      .cls-14 {
        fill: url(#radial-gradient-4);
      }
    </style>
    <clipPath id="clippath">
      <rect class="cls-6" width="368.5" height="98.1"/>
    </clipPath>
    <clipPath id="clippath-1">
      <polygon class="cls-6" points="107.8 76.8 159.9 76.9 160 65.9 120 65.9 120 47.2 155 47.2 155 36.2 120.1 36.2 120.1 18.1 159.5 18.1 159.5 7.2 107.8 7.1 107.8 76.8"/>
    </clipPath>
    <radialGradient id="radial-gradient" cx="-239.3" cy="336.1" fx="-239.3" fy="336.1" r="1" gradientTransform="translate(40351.1 56677.3) scale(168.2 -168.2)" gradientUnits="userSpaceOnUse">
      <stop offset="0" stop-color="#243e90"/>
      <stop offset=".3" stop-color="#254192"/>
      <stop offset=".5" stop-color="#2b4b9a"/>
      <stop offset=".8" stop-color="#355da7"/>
      <stop offset="1" stop-color="#4475ba"/>
      <stop offset="1" stop-color="#4577bc"/>
    </radialGradient>
    <clipPath id="clippath-2">
      <path class="cls-6" d="M190,6.2c-13.8,0-23.8,8.2-23.8,20.2v.2c0,12.8,8.3,17.2,23.2,20.8,12.9,3,15.7,5.7,15.7,10.7v.2c0,5.2-4.8,8.8-12.4,8.8-8.6,0-15.3-3.3-22-9.1l-7.4,8.8c8.4,7.5,18.4,11.2,29.1,11.2,14.6,0,24.9-7.7,24.9-20.8v-.2c0-11.5-7.5-16.8-22.3-20.4-13.4-3.2-16.6-5.6-16.6-11v-.2c0-4.6,4.2-8.3,11.4-8.3,6.4,0,12.6,2.5,18.9,7.2l6.6-9.3c-7.1-5.7-15.1-8.8-25.3-8.8h0Z"/>
    </clipPath>
    <radialGradient id="radial-gradient-2" cy="336.1" fy="336.1" r="1" gradientTransform="translate(40397.2 56621.8) scale(168.2 -168.2)" xlink:href="#radial-gradient"/>
    <clipPath id="clippath-3">
      <polygon class="cls-6" points="223.2 76.9 235.3 77 235.3 27.2 257.1 59.8 257.5 59.8 279.5 27 279.5 77 291.7 77 291.8 7.3 278.7 7.3 257.5 40.2 236.3 7.3 223.3 7.2 223.2 76.9"/>
    </clipPath>
    <radialGradient id="radial-gradient-3" cy="336.1" fy="336.1" r="1" gradientTransform="translate(40452 56555.9) scale(168.2 -168.2)" xlink:href="#radial-gradient"/>
    <clipPath id="clippath-4">
      <path class="cls-6" d="M320,49.4l12-27.9,12,27.9h-24ZM295.8,77h12.5s7.2-16.8,7.2-16.8h33s7.1,16.9,7.1,16.9h12.9s-30.6-70.2-30.6-70.2h-11.4s-30.7,70.2-30.7,70.2Z"/>
    </clipPath>
    <radialGradient id="radial-gradient-4" cy="336.1" fy="336.1" r="1" gradientTransform="translate(40512.7 56482.4) scale(168.2 -168.2)" xlink:href="#radial-gradient"/>
    <clipPath id="clippath-5">
      <path class="cls-6" d="M22.4,9.2L0,31.5l9.8,9.8,22.4-22.2L54.6,1.6c-3.2-1.1-6.5-1.6-9.9-1.6-8.1,0-16.1,3-22.3,9.2"/>
    </clipPath>
    <clipPath id="clippath-6">
      <rect class="cls-6" x="-6.9" y="-12" width="68.4" height="65.3" transform="translate(-6.9 19.6) rotate(-35.4)"/>
    </clipPath>
    <linearGradient id="linear-gradient" x1="-241.3" y1="336.1" x2="-240.3" y2="336.1" gradientTransform="translate(15200.8 21193.6) scale(63 -63)" gradientUnits="userSpaceOnUse">
      <stop offset="0" stop-color="#fff"/>
      <stop offset="0" stop-color="#fff"/>
      <stop offset=".3" stop-color="#fff"/>
      <stop offset=".7" stop-color="#1a1a1a"/>
      <stop offset="1" stop-color="#1a1a1a"/>
    </linearGradient>
    <mask id="mask" x="-63.4" y="-70" width="181.4" height="181.4" maskUnits="userSpaceOnUse">
      <g class="cls-17">
        <rect class="cls-2" x="-37.8" y="-44.3" width="130.2" height="130" transform="translate(-6.9 19.6) rotate(-35.4)"/>
      </g>
    </mask>
    <linearGradient id="linear-gradient-2" x1="-241.3" y1="336.1" x2="-240.3" y2="336.1" gradientTransform="translate(15200.8 21193.6) scale(63 -63)" gradientUnits="userSpaceOnUse">
      <stop offset="0" stop-color="#65b045"/>
      <stop offset="0" stop-color="#65b045"/>
      <stop offset=".3" stop-color="#82c341"/>
      <stop offset=".7" stop-color="#82c341"/>
      <stop offset="1" stop-color="#82c341"/>
    </linearGradient>
    <clipPath id="clippath-7">
      <path class="cls-6" d="M48.3,37.9c0,8.8,7.1,15.8,15.8,15.8s15.8-7.1,15.8-15.8-7.1-15.8-15.8-15.8-15.8,7.1-15.8,15.8"/>
    </clipPath>
    <clipPath id="clippath-8">
      <rect class="cls-6" x="48.3" y="22" width="31.7" height="31.7"/>
    </clipPath>
    <clipPath id="clippath-9">
      <path class="cls-6" d="M64.2,53.7c8.8,0,15.8-7.1,15.8-15.8s-7.1-15.8-15.8-15.8v31.7Z"/>
    </clipPath>
    <clipPath id="clippath-10">
      <rect class="cls-6" x="64.2" y="22" width="15.8" height="31.7"/>
    </clipPath>
    <clipPath id="clippath-11">
      <rect class="cls-6" width="368.5" height="98.1"/>
    </clipPath>
    <clipPath id="clippath-12">
      <path class="cls-6" d="M41.9,9.4l-22.4,22.3,9.8,9.8,22.4-22.2c3.5-3.5,7.8-5.1,12.4-5.1,4.6,0,8.8,1.6,12.4,5.1l7.2,7.2V7C78,2.5,71.2.2,64.2.2c-8.1,0-16.1,3-22.3,9.2"/>
    </clipPath>
    <linearGradient id="linear-gradient-3" x1="-236.6" y1="334.8" x2="-235.6" y2="334.8" gradientTransform="translate(-16899.4 -24015.1) rotate(-180) scale(71.8 -71.8)" gradientUnits="userSpaceOnUse">
      <stop offset="0" stop-color="#fff"/>
      <stop offset="0" stop-color="#fff"/>
      <stop offset=".1" stop-color="#edf5fb"/>
      <stop offset=".3" stop-color="#bfdcf3"/>
      <stop offset=".3" stop-color="#bddbf3"/>
      <stop offset=".3" stop-color="#9ec1e5"/>
      <stop offset=".5" stop-color="#5181c1"/>
      <stop offset=".5" stop-color="#4577bc"/>
      <stop offset=".6" stop-color="#3862ab"/>
      <stop offset=".8" stop-color="#294797"/>
      <stop offset=".9" stop-color="#243e90"/>
      <stop offset="1" stop-color="#243e90"/>
    </linearGradient>
    <clipPath id="clippath-13">
      <path class="cls-6" d="M19.5,31.7v19.8c0,0,32.2,32.2,32.2,32.2l28.5-.2c-3.4-.3-3.1-1-6.3-2.1-4.5-1.5-8.7-4-12.4-7.7L19.5,31.7Z"/>
    </clipPath>
    <linearGradient id="linear-gradient-4" x1="-241.5" y1="334.5" x2="-240.5" y2="334.5" gradientTransform="translate(14697 20390.1) scale(60.8 -60.8)" gradientUnits="userSpaceOnUse">
      <stop offset="0" stop-color="#fff"/>
      <stop offset=".3" stop-color="#fff"/>
      <stop offset=".7" stop-color="#1a1a1a"/>
      <stop offset="1" stop-color="#1a1a1a"/>
    </linearGradient>
    <mask id="mask-1" x="19.5" y="31.7" width="60.8" height="52" maskUnits="userSpaceOnUse">
      <rect class="cls-13" x="19.5" y="31.7" width="60.8" height="52"/>
    </mask>
    <linearGradient id="linear-gradient-5" x1="-241.5" y1="334.5" x2="-240.5" y2="334.5" gradientTransform="translate(14697 20390.1) scale(60.8 -60.8)" gradientUnits="userSpaceOnUse">
      <stop offset="0" stop-color="#65b045"/>
      <stop offset=".3" stop-color="#82c341"/>
      <stop offset=".7" stop-color="#82c341"/>
      <stop offset="1" stop-color="#82c341"/>
    </linearGradient>
    <clipPath id="clippath-14">
      <path class="cls-6" d="M0,31.5v19.7c0,0,32.2,32.2,32.2,32.2,14,14,34.9,17,51.9,8.9v-16.4c-5.7,4.6-12.7,6.9-19.7,6.9-8.1,0-16.1-3.1-22.3-9.3L0,31.5Z"/>
    </clipPath>
    <linearGradient id="linear-gradient-6" x1="-240.8" y1="334.7" x2="-239.8" y2="334.7" gradientTransform="translate(20243 28211.5) scale(84.1 -84.1)" gradientUnits="userSpaceOnUse">
      <stop offset="0" stop-color="#fff"/>
      <stop offset=".5" stop-color="#4577bc"/>
      <stop offset=".7" stop-color="#3762ad"/>
      <stop offset=".9" stop-color="#26499c"/>
      <stop offset="1" stop-color="#214196"/>
    </linearGradient>
  </defs>
  <polygon class="cls-4" points="107.8 82.7 114 82.7 114 83.6 108.7 83.6 108.7 86.6 113.5 86.6 113.5 87.5 108.7 87.5 108.7 90.5 114.1 90.5 114.1 91.4 107.8 91.4 107.8 82.7"/>
  <g class="cls-23">
    <path class="cls-4" d="M115.8,89v-4h.9v3.7c0,1.2.6,1.9,1.8,1.9s1.9-.8,1.9-2v-3.6h.9v6.4h-.9v-1.1c-.4.7-1.1,1.2-2.2,1.2s-2.4-1-2.4-2.6"/>
    <path class="cls-4" d="M123.5,85h.9v1.7c.5-1.1,1.4-1.8,2.6-1.8v1h0c-1.4,0-2.5,1-2.5,2.9v2.5h-.9v-6.4Z"/>
    <path class="cls-4" d="M127.8,88.2h0c0-1.8,1.4-3.4,3.3-3.4s3.3,1.5,3.3,3.3h0c0,1.8-1.4,3.4-3.3,3.4s-3.3-1.5-3.3-3.3M133.5,88.2h0c0-1.4-1-2.5-2.4-2.5s-2.3,1.1-2.3,2.5h0c0,1.4,1,2.5,2.4,2.5s2.3-1.1,2.3-2.5"/>
    <path class="cls-4" d="M136.2,85h1v1.3c.5-.8,1.3-1.4,2.4-1.4s3,1.2,3,3.3h0c0,2.1-1.5,3.3-3,3.3s-1.9-.6-2.4-1.4v3.2h-1v-8.3ZM141.6,88.2h0c0-1.5-1-2.5-2.2-2.5s-2.3,1-2.3,2.5h0c0,1.5,1.1,2.5,2.3,2.5s2.2-.9,2.2-2.5"/>
    <path class="cls-4" d="M143.9,88.2h0c0-1.9,1.3-3.3,3.1-3.3s3,1.5,3,3.4,0,.2,0,.3h-5.1c.1,1.4,1.1,2.2,2.2,2.2s1.5-.4,2-.9l.6.5c-.6.7-1.4,1.2-2.6,1.2-1.8,0-3.2-1.3-3.2-3.3M149,87.8c0-1.2-.8-2.2-2-2.2s-1.9.9-2.1,2.2h4.1Z"/>
    <path class="cls-4" d="M151.2,89.5h0c0-1.4,1.1-2.1,2.7-2.1s1.4.1,2,.3v-.2c0-1.1-.7-1.7-1.9-1.7s-1.3.2-1.9.5l-.3-.8c.7-.3,1.4-.5,2.3-.5s1.6.2,2.1.7c.4.4.7,1,.7,1.9v3.9h-.9v-1c-.4.6-1.2,1.1-2.3,1.1s-2.4-.7-2.4-2M155.9,89v-.6c-.5-.1-1.1-.3-1.9-.3-1.2,0-1.9.5-1.9,1.3h0c0,.8.7,1.3,1.6,1.3s2.1-.7,2.1-1.7"/>
    <path class="cls-4" d="M158.8,85h.9v1.1c.4-.7,1.1-1.2,2.2-1.2s2.4,1,2.4,2.6v4h-1v-3.7c0-1.2-.6-1.9-1.8-1.9s-1.9.8-1.9,2v3.6h-.9v-6.4Z"/>
    <path class="cls-4" d="M169.7,90.1l.6-.7c.9.8,1.8,1.2,3,1.2s1.9-.6,1.9-1.5h0c0-.8-.4-1.3-2.2-1.7-2-.4-2.9-1.1-2.9-2.5h0c0-1.4,1.2-2.4,2.8-2.4s2.2.4,3,1.1l-.6.8c-.8-.7-1.6-.9-2.5-.9s-1.8.6-1.8,1.4h0c0,.8.4,1.3,2.3,1.7,1.9.4,2.8,1.1,2.8,2.4h0c0,1.5-1.2,2.5-2.9,2.5s-2.5-.5-3.5-1.4"/>
    <path class="cls-4" d="M177.6,88.2h0c0-1.9,1.3-3.3,3.1-3.3s3,1.5,3,3.4,0,.2,0,.3h-5.1c.1,1.4,1.1,2.2,2.2,2.2s1.5-.4,2-.9l.6.5c-.6.7-1.4,1.2-2.6,1.2-1.8,0-3.2-1.3-3.2-3.3M182.6,87.8c0-1.2-.8-2.2-2-2.2s-1.9.9-2.1,2.2h4.1Z"/>
    <path class="cls-4" d="M184.9,88.2h0c0-1.8,1.4-3.4,3.3-3.4s2,.5,2.6,1.1l-.6.7c-.5-.5-1.1-1-1.9-1-1.3,0-2.3,1.1-2.3,2.5h0c0,1.4,1,2.5,2.3,2.5s1.4-.4,1.9-.9l.6.6c-.6.7-1.4,1.2-2.6,1.2-1.9,0-3.3-1.5-3.3-3.3"/>
    <path class="cls-4" d="M192.2,89v-4h.9v3.7c0,1.2.6,1.9,1.8,1.9s1.9-.8,1.9-2v-3.6h.9v6.4h-.9v-1.1c-.4.7-1.1,1.2-2.2,1.2s-2.4-1-2.4-2.6"/>
    <path class="cls-4" d="M199.9,85h.9v1.7c.5-1.1,1.4-1.8,2.6-1.8v1h0c-1.4,0-2.5,1-2.5,2.9v2.5h-.9v-6.4Z"/>
    <path class="cls-4" d="M204.9,82.6h1.1v1h-1.1v-1ZM205,85h.9v6.4h-.9v-6.4Z"/>
    <path class="cls-4" d="M208.5,89.7v-3.8h-.9v-.8h.9v-1.9h.9v1.9h2v.8h-2v3.7c0,.8.4,1.1,1.1,1.1s.6,0,.9-.2v.8c-.3.2-.7.3-1.1.3-1,0-1.8-.5-1.8-1.8"/>
    <path class="cls-4" d="M213.1,82.6h1.1v1h-1.1v-1ZM213.2,85h.9v6.4h-.9v-6.4Z"/>
    <path class="cls-4" d="M216,88.2h0c0-1.9,1.3-3.3,3.1-3.3s3,1.5,3,3.4,0,.2,0,.3h-5.1c.1,1.4,1.1,2.2,2.2,2.2s1.5-.4,2-.9l.6.5c-.6.7-1.4,1.2-2.6,1.2-1.8,0-3.2-1.3-3.2-3.3M221,87.8c0-1.2-.8-2.2-2-2.2s-1.9.9-2.1,2.2h4.1Z"/>
    <path class="cls-4" d="M223.1,90.6l.5-.7c.7.5,1.5.8,2.2.8s1.3-.4,1.3-1h0c0-.7-.8-.9-1.6-1.1-1-.3-2.1-.6-2.1-1.8h0c0-1.1.9-1.8,2.2-1.8s1.6.3,2.3.7l-.4.7c-.6-.4-1.3-.6-1.9-.6s-1.2.4-1.2.9h0c0,.6.8.9,1.6,1.1,1,.3,2,.7,2,1.8h0c0,1.2-1,1.9-2.3,1.9s-1.9-.4-2.6-.9"/>
    <path class="cls-4" d="M233,89.5h0c0-1.4,1.1-2.1,2.7-2.1s1.4.1,2,.3v-.2c0-1.1-.7-1.7-1.9-1.7s-1.3.2-1.9.5l-.3-.8c.7-.3,1.4-.5,2.3-.5s1.6.2,2.1.7c.4.4.7,1,.7,1.9v3.9h-.9v-1c-.4.6-1.2,1.1-2.3,1.1s-2.4-.7-2.4-2M237.7,89v-.6c-.5-.1-1.1-.3-1.9-.3-1.2,0-1.9.5-1.9,1.3h0c0,.8.7,1.3,1.6,1.3s2.1-.7,2.1-1.7"/>
    <path class="cls-4" d="M240.6,85h.9v1.1c.4-.7,1.1-1.2,2.2-1.2s2.4,1,2.4,2.6v4h-1v-3.7c0-1.2-.6-1.9-1.8-1.9s-1.9.8-1.9,2v3.6h-.9v-6.4Z"/>
    <path class="cls-4" d="M247.9,88.2h0c0-2.1,1.5-3.3,3-3.3s1.9.6,2.4,1.4v-3.8h.9v9h-.9v-1.3c-.5.8-1.3,1.4-2.4,1.4s-3-1.2-3-3.3M253.4,88.2h0c0-1.5-1.1-2.5-2.3-2.5s-2.2.9-2.2,2.5h0c0,1.5,1,2.5,2.2,2.5s2.3-1,2.3-2.5"/>
    <polygon class="cls-4" points="260.3 82.7 261.3 82.7 264.4 87.5 267.5 82.7 268.5 82.7 268.5 91.4 267.6 91.4 267.6 84.4 264.4 89 264.4 89 261.2 84.4 261.2 91.4 260.3 91.4 260.3 82.7"/>
    <path class="cls-4" d="M270.3,89.5h0c0-1.4,1.1-2.1,2.7-2.1s1.4.1,2,.3v-.2c0-1.1-.7-1.7-1.9-1.7s-1.3.2-1.9.5l-.3-.8c.7-.3,1.4-.5,2.3-.5s1.6.2,2.1.7c.4.4.7,1,.7,1.9v3.9h-.9v-1c-.4.6-1.2,1.1-2.3,1.1s-2.4-.7-2.4-2M275,89v-.6c-.5-.1-1.1-.3-1.9-.3-1.2,0-1.9.5-1.9,1.3h0c0,.8.7,1.3,1.6,1.3s2.1-.7,2.1-1.7"/>
    <path class="cls-4" d="M278,85h.9v1.7c.5-1.1,1.4-1.8,2.6-1.8v1h0c-1.4,0-2.5,1-2.5,2.9v2.5h-.9v-6.4Z"/>
    <polygon class="cls-4" points="282.9 82.4 283.9 82.4 283.9 88.6 287.3 85 288.5 85 285.8 87.7 288.6 91.4 287.5 91.4 285.2 88.4 283.9 89.7 283.9 91.4 282.9 91.4 282.9 82.4"/>
    <path class="cls-4" d="M289.3,88.2h0c0-1.9,1.3-3.3,3.1-3.3s3,1.5,3,3.4,0,.2,0,.3h-5.1c.1,1.4,1.1,2.2,2.2,2.2s1.5-.4,2-.9l.6.5c-.6.7-1.4,1.2-2.6,1.2-1.8,0-3.2-1.3-3.2-3.3M294.3,87.8c0-1.2-.8-2.2-2-2.2s-1.9.9-2.1,2.2h4.1Z"/>
    <path class="cls-4" d="M297.3,89.7v-3.8h-.9v-.8h.9v-1.9h.9v1.9h2v.8h-2v3.7c0,.8.4,1.1,1.1,1.1s.6,0,.9-.2v.8c-.3.2-.7.3-1.1.3-1,0-1.8-.5-1.8-1.8"/>
    <path class="cls-4" d="M301.4,90.6l.5-.7c.7.5,1.5.8,2.2.8s1.3-.4,1.3-1h0c0-.7-.8-.9-1.6-1.1-1-.3-2.1-.6-2.1-1.8h0c0-1.1.9-1.8,2.2-1.8s1.6.3,2.3.7l-.4.7c-.6-.4-1.3-.6-1.9-.6s-1.2.4-1.2.9h0c0,.6.8.9,1.6,1.1,1,.3,2,.7,2,1.8h0c0,1.2-1,1.9-2.3,1.9s-1.9-.4-2.6-.9"/>
    <path class="cls-4" d="M315.1,82.7h.9l3.9,8.7h-1l-1-2.3h-4.7l-1,2.3h-1l3.9-8.7ZM317.5,88.2l-2-4.4-2,4.4h3.9Z"/>
    <path class="cls-4" d="M321.3,89v-4h.9v3.7c0,1.2.6,1.9,1.8,1.9s1.9-.8,1.9-2v-3.6h.9v6.4h-.9v-1.1c-.4.7-1.1,1.2-2.2,1.2s-2.4-1-2.4-2.6"/>
    <path class="cls-4" d="M329.3,89.7v-3.8h-.9v-.8h.9v-1.9h.9v1.9h2v.8h-2v3.7c0,.8.4,1.1,1.1,1.1s.6,0,.9-.2v.8c-.3.2-.7.3-1.1.3-1,0-1.8-.5-1.8-1.8"/>
    <path class="cls-4" d="M334,82.4h.9v3.7c.4-.7,1.1-1.2,2.2-1.2s2.4,1,2.4,2.6v4h-1v-3.7c0-1.2-.6-1.9-1.8-1.9s-1.9.8-1.9,2v3.6h-.9v-9Z"/>
    <path class="cls-4" d="M341.2,88.2h0c0-1.8,1.4-3.4,3.3-3.4s3.3,1.5,3.3,3.3h0c0,1.8-1.4,3.4-3.3,3.4s-3.3-1.5-3.3-3.3M346.8,88.2h0c0-1.4-1-2.5-2.4-2.5s-2.3,1.1-2.3,2.5h0c0,1.4,1,2.5,2.4,2.5s2.3-1.1,2.3-2.5"/>
    <path class="cls-4" d="M349.5,85h.9v1.7c.5-1.1,1.4-1.8,2.6-1.8v1h0c-1.4,0-2.5,1-2.5,2.9v2.5h-.9v-6.4Z"/>
    <path class="cls-4" d="M354.5,82.6h1.1v1h-1.1v-1ZM354.6,85h.9v6.4h-.9v-6.4Z"/>
    <path class="cls-4" d="M358.1,89.7v-3.8h-.9v-.8h.9v-1.9h.9v1.9h2v.8h-2v3.7c0,.8.4,1.1,1.1,1.1s.6,0,.9-.2v.8c-.3.2-.7.3-1.1.3-1,0-1.8-.5-1.8-1.8"/>
    <path class="cls-4" d="M367.5,85h1l-2.7,6.6c-.5,1.3-1.2,1.8-2.1,1.8s-.9-.1-1.4-.3l.3-.8c.3.2.6.2,1,.2s.9-.3,1.3-1.2l-2.9-6.4h1l2.3,5.3,2-5.3Z"/>
  </g>
  <g class="cls-19">
    <rect class="cls-10" x="94.8" y="9.9" width="78.2" height="64.2" transform="translate(67.8 165.8) rotate(-79.3)"/>
  </g>
  <g class="cls-15">
    <rect class="cls-8" x="150.2" y="8.9" width="80.5" height="66.3" transform="translate(113.8 221.4) rotate(-79.3)"/>
  </g>
  <g class="cls-24">
    <rect class="cls-12" x="216.9" y="2" width="81.3" height="80.3" transform="translate(168.4 287.4) rotate(-79.3)"/>
  </g>
  <g class="cls-20">
    <rect class="cls-14" x="290.9" y="-.2" width="82.5" height="84.4" transform="translate(229.4 360.6) rotate(-79.3)"/>
  </g>
  <g class="cls-29">
    <g class="cls-27">
      <rect class="cls-7" x="-6.9" y="-12" width="68.4" height="65.3" transform="translate(-6.9 19.6) rotate(-35.4)"/>
    </g>
  </g>
  <g class="cls-18">
    <g class="cls-25">
      <image width="67" height="67" transform="translate(48.1 22) scale(.5)" xlink:href="logo_esma-1.png"/>
    </g>
  </g>
  <g class="cls-22">
    <g class="cls-30">
      <image width="34" height="67" transform="translate(64 22) scale(.5)" xlink:href="logo_esma-2.png"/>
    </g>
  </g>
  <g class="cls-1">
    <path class="cls-11" d="M64.5,27.9c-.1-.4-.2-.7-.4-1.1-.1.4-.2.7-.4,1.1-.4,0-.8,0-1.2,0,.3.2.6.5.9.7-.1.4-.2.7-.4,1.1.3-.2.6-.5.9-.7.3.2.6.5.9.7-.1-.4-.2-.7-.4-1.1.3-.2.6-.5.9-.7h-1.2"/>
    <path class="cls-11" d="M69,28.1c-.1.4-.2.7-.4,1.1-.4,0-.8,0-1.2,0,.3.2.6.5.9.7-.1.4-.2.7-.4,1.1.3-.2.6-.5.9-.7.3.2.6.5.9.7-.1-.4-.2-.7-.4-1.1.3-.2.6-.5.9-.7-.4,0-.8,0-1.2,0-.1-.4-.2-.7-.4-1.1"/>
    <path class="cls-11" d="M59.7,29.2c-.1-.4-.2-.7-.4-1.1-.1.4-.2.7-.4,1.1h-1.2c.3.2.6.5.9.7-.1.4-.2.7-.4,1.1.3-.2.6-.5.9-.7.3.2.6.5.9.7-.1-.4-.2-.7-.4-1.1.3-.2.6-.5.9-.7-.4,0-.8,0-1.2,0"/>
    <path class="cls-11" d="M72.5,31.6c-.1.4-.2.7-.4,1.1h-1.2c.3.2.6.5.9.7-.1.4-.2.7-.4,1.1.3-.2.6-.5.9-.7.3.2.6.5.9.7-.1-.4-.2-.7-.4-1.1.3-.2.6-.5.9-.7h-1.2c-.1-.4-.2-.7-.4-1.1"/>
    <path class="cls-11" d="M55.9,31.6c-.1.4-.2.7-.4,1.1-.4,0-.8,0-1.2,0,.3.2.6.5.9.7-.1.4-.2.7-.4,1.1.3-.2.6-.5.9-.7.3.2.6.5.9.7-.1-.4-.2-.7-.4-1.1.3-.2.6-.5.9-.7-.4,0-.8,0-1.2,0-.1-.4-.2-.7-.4-1.1"/>
    <path class="cls-11" d="M73.8,36.4c-.1.4-.2.7-.4,1.1-.4,0-.8,0-1.2,0,.3.2.6.5.9.7-.1.4-.2.7-.4,1.1.3-.2.6-.5.9-.7.3.2.6.5.9.7-.1-.4-.2-.7-.4-1.1.3-.2.6-.5.9-.7-.4,0-.8,0-1.2,0-.1-.4-.2-.7-.4-1.1"/>
    <path class="cls-11" d="M55,37.5c-.1-.4-.2-.7-.4-1.1-.1.4-.2.7-.4,1.1h-1.2c.3.2.6.5.9.7-.1.4-.2.7-.4,1.1.3-.2.6-.5.9-.7.3.2.6.5.9.7-.1-.4-.2-.7-.4-1.1.3-.2.6-.5.9-.7-.4,0-.8,0-1.2,0"/>
    <path class="cls-11" d="M72.8,42.3c-.1-.4-.2-.7-.4-1.1-.1.4-.2.7-.4,1.1h-1.2c.3.2.6.5.9.7-.1.4-.2.7-.4,1.1.3-.2.6-.5.9-.7.3.2.6.5.9.7-.1-.4-.2-.7-.4-1.1.3-.2.6-.5.9-.7h-1.2"/>
    <path class="cls-11" d="M56.2,42.3c-.1-.4-.2-.7-.4-1.1-.1.4-.2.7-.4,1.1-.4,0-.8,0-1.2,0,.3.2.6.5.9.7-.1.4-.2.7-.4,1.1.3-.2.6-.5.9-.7.3.2.6.5.9.7-.1-.4-.2-.7-.4-1.1.3-.2.6-.5.9-.7-.4,0-.8,0-1.2,0"/>
    <path class="cls-11" d="M69,44.7c-.1.4-.2.7-.4,1.1h-1.2c.3.2.6.5.9.7-.1.4-.2.7-.4,1.1.3-.2.6-.5.9-.7.3.2.6.5.9.7-.1-.4-.2-.7-.4-1.1.3-.2.6-.5.9-.7-.4,0-.8,0-1.2,0-.1-.4-.2-.7-.4-1.1"/>
    <path class="cls-11" d="M59.7,45.8c-.1-.4-.2-.7-.4-1.1-.1.4-.2.7-.4,1.1h-1.2c.3.2.6.5.9.7-.1.4-.2.7-.4,1.1.3-.2.6-.5.9-.7.3.2.6.5.9.7-.1-.4-.2-.7-.4-1.1.3-.2.6-.5.9-.7-.4,0-.8,0-1.2,0"/>
    <path class="cls-11" d="M64.5,47.1c-.1-.4-.2-.7-.4-1.1-.1.4-.2.7-.4,1.1-.4,0-.8,0-1.2,0,.3.2.6.5.9.7-.1.4-.2.7-.4,1.1.3-.2.6-.5.9-.7.3.2.6.5.9.7-.1-.4-.2-.7-.4-1.1.3-.2.6-.5.9-.7-.4,0-.8,0-1.2,0"/>
  </g>
  <g class="cls-21">
    <rect class="cls-9" x="13.6" y="-12.2" width="76" height="66" transform="translate(-3.8 25.7) rotate(-27)"/>
  </g>
  <g class="cls-16">
    <g class="cls-26">
      <rect class="cls-5" x="19.5" y="31.7" width="60.8" height="52"/>
    </g>
  </g>
  <g class="cls-28">
    <rect class="cls-3" y="31.5" width="84.1" height="69"/>
  </g>
</svg>